<svg xmlns="http://www.w3.org/2000/svg" version="1.1" xmlns:xlink="http://www.w3.org/1999/xlink" xmlns:svgjs="http://svgjs.dev/svgjs" width="1440" height="560" preserveAspectRatio="none" viewBox="0 0 1440 560"><g mask="url(&quot;#SvgjsMask1001&quot;)" fill="none"><path d="M -367.681884603624,260 C -271.68,297.8 -79.68,448.2 112.31811539637602,449 C 304.32,449.8 400.32,258.2 592.318115396376,264 C 784.32,269.8 880.32,507.2 1072.318115396376,478 C 1264.32,448.8 1478.78,139.2 1552.318115396376,118 C 1625.85,96.8 1462.46,321.2 1440,372" stroke="rgba(51, 121, 194, 0.58)" stroke-width="2"></path><path d="M -28.789672578636157,293 C 67.21,275.2 259.21,165.2 451.21032742136384,204 C 643.21,242.8 739.21,490.8 931.2103274213639,487 C 1123.21,483.2 1219.21,213 1411.210327421364,185 C 1603.21,157 1885.45,342.6 1891.210327421364,347 C 1896.97,351.4 1530.24,235 1440,207" stroke="rgba(51, 121, 194, 0.58)" stroke-width="2"></path><path d="M -776.2498051183613,99 C -680.25,163.6 -488.25,419.4 -296.2498051183613,422 C -104.25,424.6 -8.25,101.2 183.75019488163872,112 C 375.75,122.8 471.75,473.8 663.7501948816387,476 C 855.75,478.2 988.5,128.4 1143.7501948816387,123 C 1299,117.6 1380.75,383.8 1440,449" stroke="rgba(51, 121, 194, 0.58)" stroke-width="2"></path><path d="M -135.43203533025087,450 C -39.43,376.6 152.57,77.4 344.56796466974913,83 C 536.57,88.6 632.57,444.2 824.5679646697491,478 C 1016.57,511.8 1112.57,247.4 1304.567964669749,252 C 1496.57,256.6 1757.48,500.2 1784.567964669749,501 C 1811.65,501.8 1508.91,305 1440,256" stroke="rgba(51, 121, 194, 0.58)" stroke-width="2"></path></g><defs><mask id="SvgjsMask1001"><rect width="1440" height="560" fill="#ffffff"></rect></mask></defs></svg>